# xmcd
#
# Track frame offsets: 
#        182
#        17210
#        36785
#        58310
#        88535
#        110660
#        128885
#        154235
#        170585
#
# Disc length: 2532 seconds
#
# Revision: 2
# Processed by: cddbd v1.5.2PL0 Copyright (c) Steve Scherf et al.
# Submitted via: ExactAudioCopyFreeDBPlugin 1.0
#
DISCID=7909e209
DTITLE=Don and Susie Newby - Stepping through the changes
DYEAR=1989
DGENRE=Country
TTITLE0=You can do all things
TTITLE1=Ballad of the clay pot
TTITLE2=Gone away
TTITLE3=Träume blühn und welken
TTITLE4=Celebrate the king
TTITLE5=Goodbye
TTITLE6=Ein Fenster im Nebel
TTITLE7=Then there were two
TTITLE8=Psalm 67
EXTD=
EXTT0=
EXTT1=
EXTT2=
EXTT3=
EXTT4=
EXTT5=
EXTT6=
EXTT7=
EXTT8=
PLAYORDER=
